<svg width="32" height="32" xmlns="http://www.w3.org/2000/svg">

 <g>
  <title>Layer 1</title>
  <path id="svg_1" fill="#f7f8f8" d="m20,19.55817l0,-12a3,3 0 0 0 -3,-3l-14,0a3,3 0 0 0 -3,3l0,5l4,0l0,12a3,3 0 0 0 3,3l14,0a3,3 0 0 0 3,-3l0,-5l-4,0zm-16,-9l-2,0l0,-3a1,1 0 0 1 2,0l0,3zm2,14l0,-17c0,-0.35 -0.06,-0.687 -0.171,-1l11.171,0c0.551,0 1,0.449 1,1l0,12l-10,0l0,5a1,1 0 0 1 -2,0zm16,0c0,0.551 -0.449,1 -1,1l-11.171,0c0.111,-0.313 0.171,-0.65 0.171,-1l0,-3l12,0l0,3zm-6,-12l-8,0l0,-2l8,0l0,2zm0,4l-8,0l0,-2l8,0l0,2z"/>
  <path stroke="null" id="svg_8" d="m29.35472,12.56777l-3.92831,-5.20652l2.5871,0l3.92831,5.20652l-3.92831,5.20651l-2.5871,0l3.92831,-5.20651z" fill="#f7f8f8"/>
 </g>
</svg>