<svg width="22" height="22" viewBox="0 0 24 24" fill="none" xmlns="http://www.w3.org/2000/svg"><path fill-rule="evenodd" clip-rule="evenodd" d="M3.614 4.21a1 1 0 00-1.228 1.58l2.278 1.77c-.88.985-1.633 2.12-2.245 3.336l-.022.043c-.091.18-.21.412-.262.7a2.097 2.097 0 000 .723c.053.287.17.519.262.7l.022.042C4.359 16.956 7.719 20 12 20c2.231 0 4.213-.827 5.874-2.165l2.512 1.954a1 1 0 101.228-1.578l-18-14zm12.627 12.355l-1.798-1.398a4 4 0 01-6.115-4.756L6.245 8.79c-.778.849-1.466 1.864-2.04 3.005a12.142 12.142 0 00-.1.204l.032.068.068.136C5.96 15.69 8.767 18 12 18c1.531 0 2.967-.518 4.241-1.435zm-6.222-4.84a2 2 0 002.735 2.127l-2.735-2.126z" fill="#0F1729"/><path d="M10.95 8.14L16 12.065V12a4 4 0 00-5.05-3.86z" fill="#0F1729"/><path d="M19.795 12.204a14.206 14.206 0 01-1.155 1.915l1.578 1.228c.51-.701.967-1.455 1.364-2.243l.021-.043c.092-.18.21-.412.262-.7a2.094 2.094 0 000-.723 2.52 2.52 0 00-.262-.7l-.021-.042C19.642 7.044 16.28 4 12 4c-1.715 0-3.283.489-4.67 1.323l1.729 1.345A6.889 6.889 0 0112 6c3.233 0 6.04 2.31 7.795 5.796l.068.136.032.068a1.801 1.801 0 01-.032.068l-.068.136z" fill="#161410"/></svg>