<svg height="22" width="22" xmlns="http://www.w3.org/2000/svg" viewBox="0 0 512 512"><path fill="#161410" d="M503.903 448.633c-9.479-1.182-18.047-3.328-25.47-6.415-11.15-4.665-19.664-11.282-25.62-20.31-5.934-9.042-9.483-20.8-9.502-36.444 0-8.888 1.174-19.004 3.76-30.356 1.617-7.13 2.391-14.082 2.391-20.785.015-21.499-8.001-40.27-20.746-53.55-12.717-13.304-30.205-21.212-48.82-21.204a66.345 66.345 0 00-16.29 2.029V106.771c5.105-4.611 15.684-13.358 24.668-15.597 14.859-3.702 27.732-12.418 27.732-27.729 0-15.318-12.418-27.728-27.732-27.728H27.728C12.414 35.717 0 48.127 0 63.445c0 15.311 12.872 24.027 27.728 27.729 8.985 2.239 19.567 10.986 24.68 15.597V405.23c-5.113 4.611-15.695 13.359-24.68 15.598C12.872 424.529 0 433.246 0 448.555c0 15.311 12.414 27.728 27.728 27.728h360.547c15.314 0 27.732-12.417 27.732-27.728 0-15.31-12.872-24.027-27.732-27.728-8.984-2.239-19.563-10.979-24.668-15.598V280.96c5.486-1.936 10.952-2.908 16.29-2.908 13.339 0 26.017 5.637 35.468 15.504 9.428 9.868 15.594 23.848 15.61 40.768 0 5.28-.607 10.848-1.932 16.679-2.834 12.495-4.218 23.949-4.218 34.462-.004 12.309 1.905 23.358 5.633 33.077 5.56 14.595 15.354 26.025 27.724 33.91 12.383 7.923 27.195 12.487 43.427 14.525 5.066.638 9.688-2.963 10.318-8.024.634-5.064-2.958-9.69-8.024-10.32zM80.136 109.655h141.33l-141.33 38.723v-38.723zm255.74 292.69h-140.63l140.63-38.52v38.52zm0-52.897l-193.099 52.897h-62.64v-36.25l255.74-70.066v53.419zm0-67.788l-255.74 70.066v-53.38l255.74-70.113v53.427zm0-67.796l-255.74 70.113v-53.426l255.74-70.066v53.379zm0-67.756l-255.74 70.074v-53.418l193.796-53.108h61.944v36.452z"/></svg>